<!--?xml version="1.0" encoding="utf-8"?-->
<!-- Generator: Adobe Illustrator 24.0.0, SVG Export Plug-In . SVG Version: 6.00 Build 0)  -->
<svg version="1.1" xmlns="http://www.w3.org/2000/svg" xmlns:xlink="http://www.w3.org/1999/xlink" x="0px" y="0px" viewBox="0 0 2551.5 900" style="" xml:space="preserve">
<style type="text/css">
	.st0{display:none;}
	.st1{fill:none;stroke:#F1D0C5;stroke-width:22;stroke-linecap:round;stroke-linejoin:round;stroke-miterlimit:10;}
	.st2{fill:none;stroke:#F1D0C5;stroke-width:21;stroke-linecap:round;stroke-linejoin:round;stroke-miterlimit:10;}
</style>
<g id="Layer_1" class="st0">
	
		<image style="display:inline;overflow:visible;" width="2500" height="590" xlink:href="BR19_web+logo+overlay.png" transform="matrix(1 0 0 1 27.4616 155)">
	</image>
</g>
<g id="boxer">
	<g>
		<path class="st1 GhPRxRFO_0" d="M26.6,394.3c77.3,24.9,154.2,51,232,74.5c70.4,21.3,145.3,46.9,219.8,44.6c57.3-1.8,113.6-17.3,166.8-38
			c58.4-22.6,114.1-51.8,168.3-83c19.3-11.1,38.3-22.5,57.3-34c10.6-6.4,20.8-13.7,31.4-20c11.1-6.6,23.6-11.4,35.1-17.1
			c23.5-11.8,46.7-24.3,68.8-38.7c18.4-12,37.6-25.5,51.4-42.6c11.7-14.5,22.3-36.6,15.3-55.4c-10.3-27.6-38.1-16.9-56.1-4.1
			c-17.2,12.2-31.1,28.6-43.2,45.9c-18.1,26-32.3,54.4-45.6,83.1c-9.8,21.1-20.1,41.9-28.4,63.7c-7.7,20-14.8,41.1-16.8,62.6
			c-1.2,12.7-0.9,34.1,13.4,40c12.3,5.1,31.9-9,41-16.4c17.3-13.9,30.9-32.2,42.3-51.1c8.8-14.5,10.7-34.7-6.5-43.6
			c-7-3.6-17.7-5.3-24.9-0.1c-21.6,15.7,8.9,41.9,22.9,48.5c10.8,5.1,22.6,8.1,34.5,8.6c6.6,0.2,13.8-1.1,20.4-1.9
			c5.9-0.8,11.8-2.2,16.6-5.7c5-3.6,8-8.9,11.1-14.1c3.4-5.9,7.5-11.4,11.2-17.2c6.5-10.2,13.5-20,23.3-27.3
			c17.9-13.4,51.5-20.4,68.1-0.4c16,19.3,4.2,51.3-4.1,71c0,0-27.9,55.8-71,50.7c0,0-43.9-2.2-34.4-64.1"></path>
		<path class="st1 GhPRxRFO_1" d="M1207.8,474.2L1395.6,344.8"></path>
		<path class="st1 GhPRxRFO_2" d="M1096.2,350.2c8.7,32.4,27.2,64.8,59.7,78.5c37.2,15.8,63.3-30.3,82.3-54.1c15.8-19.8,58.8-49.5,63.5-4.5
			c0.4,13.8,0.8,27.5,1.3,41.3c0.5,16.2-3.7,35.9,5.3,50.5c9.2,14.9,26.7,16.2,41.7,9.7c0,0,55.8-20.3,88.8-71
			c0,0,30.4-60.9,83.7-50.7c8.8,1.7,15.3,11.9,15.9,20.1c1.5,21.5-19.2,41.6-35.8,52.1c-21.2,13.4-46,6.2-67.5-3.5
			c-0.5-0.2-3,24.6-2.5,27.3c1.2,7.3,6,14.6,11.3,19.7c19.1,18.4,48.8,10.7,70.4,1.4c0,0,57.1-32.4,94.2-99c0,0,20-37.1-10.5-39
			c-16.1-1-27.3,28.2-13.6,36.8c8.9,5.6,20.8,3,30.5,1.4c19.5-3.2,39.1-10.9,58.9-11.8c2.4-0.1,5.2,0.1,6.5,2.1
			c4.4,6.9-8.8,22.3-12.3,27.4c-10,14.8-19.7,30-27.9,46c-5.3,10.4-16.8,32.4-3.8,41.9c25.8,19,81.3-56.3,96.4-72.2
			c23.2-24.4,46.4-48.9,69.7-73.3c0.1-0.1,0.2-0.2,0.3-0.3c49.6-52.1,124.2-19.5,176.1,11.2c47.8,28.3,88.4,67.3,137.9,93.1
			c40.4,21,83.9,36.1,128.6,44.6c68.1,13,138.7,10.1,205.4-9l76.9-26.6"></path>
	</g>
</g>
<g id="Layer_3">
	<g>
		<path class="st2 GhPRxRFO_3" d="M27.5,539c55.3-35.5,111.1-70.2,167.7-103.6c21.5-12.7,43.1-25.2,65.2-36.9C306,374.1,356,352,408.2,347.6
			c55.8-4.7,106.9,22.3,133.4,72c31.6,59,20.3,128.1,16.9,191.9c-1.9,36.3,4.8,83.6,34.4,108.3c38.3,31.9,92.2-0.6,126-23.4
			c13.8-12.5,27.1-25.5,39.9-38.9c9.9-10.3,19.5-21,28.4-32.2c15.3-19.3,38-40.9,35.7-67.7c-0.3-3.3-0.9-6.6-2.8-9.3
			c-3.8-5.6-12-6.9-18.2-4.2c-10.9,4.7-17.2,18-11.8,29c1.3,2.7,2.9,5.5,5.3,7.3c6.8,4.8,35-1.8,43-2.8c15.2-1.9,30.3-4.2,45.3-7.3
			c1.8-0.4,4.3-0.4,5,1.3c0.4,1.1-0.1,2.3-0.7,3.3c-8.2,13.5-17.2,26.9-24.8,41.1c-9.1,16.8-20.9,34.2-22.8,53.9
			c-1,10.5,2.8,19.7,14.9,18.1c14.8-2,25.9-13,37.3-21.8c7.9-6.1,15.9-12.3,23.8-18.4c8.2-6.3,11.8-17.6,17.5-26
			c6.6-9.7,14.4-18.6,23-26.6c18.5-17,66.7-52.8,93.2-31.7c11.8,9.4,10.2,27.9,5,42.1c-14,38.2-46,69.3-84.6,82.2
			c-38.1,12.7-51.7-11.3-49.8-45.9"></path>
		<path class="st2 GhPRxRFO_4" d="M1082.6,554.7c-11,20.9-21.9,41.9-32.3,63.2c-8.4,17.2-15.8,32-13.8,51.6c1.3,12.9,9.6,27.6,24.4,18.9
			c22-13,40.4-35.1,56.1-55c12.6-15.9,25.4-32.8,40.1-47.1c13.5-13.1,33.4-29.6,53.5-28c1.3,0.1,2.5,0.3,3.7,0.6
			c0,0,22.9,1.4,15.7,25.8c0,0-4.3,6.7-10.8,17.1c-15.8,25.3-44.5,72.2-53.6,94.6"></path>
		<path class="st2 GhPRxRFO_5" d="M1230.1,584.8c15.8-9.2,57.9-36.9,76.3-24.4c23.8,16.2-9.4,49.8-19.1,64.7c-14.1,21.6-32.6,46.8-37.1,72.8"></path>
		<path class="st2 GhPRxRFO_6" d="M1313.1,587.6c18.1-12.1,47.5-34.1,70.4-31.7c4.9,0.5,9.8,3.9,10.3,8.8c0.3,2.4-0.5,4.8-1.3,7.1
			c-7,19.7-17.6,37.8-27,56.3c-5.9,11.7-25.5,43.6-17.1,56.8c2.5,4,7.7,5.7,12.4,5.4c28.4-1.9,49.5-33.9,67.8-52
			c20-19.8,33.7-47.7,57.6-64c19.4-13.2,68-22.8,58.8,15.9c-4.9,20.5-27.3,43.6-46.7,50.9c-18,6.8-34.9,1.3-52.5-3.6
			c-0.8-0.2-1.6-0.4-2.4-0.3c-0.8,0.2-1.5,0.8-2.1,1.4c-13,13.4,0.6,35.3,13.2,44.1c14.6,10.2,33.9,8.6,50.1,3.9
			c43-12.3,71.1-59.2,99.3-90.9c4.6-5.2,9.2-10.5,14.1-15.4c13-13,30-23.4,49.3-22c16.4,1.2,16.3,19.6,13.7,32
			c0,0-48.7,67.3-61.6,108.8"></path>
		<path class="st2 GhPRxRFO_7" d="M1681,590.5c19.9-15.5,46.4-33,72.7-31.7c12.8,0.6,8.4,14.5,4.9,22c-7.7,16.3-14.7,32.8-22.7,48.9
			c-7.3,14.7-17.3,30-16.8,47.1c0.4,12.4,9.2,15.1,19.9,11c11.1-4.2,20.3-12.1,29.6-19.2c8.4-6.4,16.9-12.8,25.3-19.1
			c23.3-17.6,46.5-35.3,69.8-52.9c23.9-18.2,47.8-36.4,71.5-54.8c19-14.7,37.2-30.4,57.2-43.9c9.1-6.2,18.3-12.2,27.6-18.1
			c27.5-17.3,55.9-33.4,85.3-47.4c32.8-15.7,67.2-29.3,103-36.5c46.1-9.2,97.5-3.5,141.2,13.5c15.1,5.9,34.7,16.2,41.8,31.7
			c15.2,33.1-19.1,65.7-38,89.5c-18.7,23.6-37.5,47.3-56.2,70.9c-5.4,6.8-10.8,13.6-16.2,20.4c0,0-58.7,70.2,28.6,80.2
			c0,0,93.1,8.6,214.7-41.5"></path>
	</g>
</g>
<style data-made-with="vivus-instant">.GhPRxRFO_0{stroke-dasharray:2309 2311;stroke-dashoffset:2310;animation:GhPRxRFO_draw 2000ms linear 0ms forwards;}.GhPRxRFO_1{stroke-dasharray:229 231;stroke-dashoffset:230;animation:GhPRxRFO_draw 2000ms linear 142ms forwards;}.GhPRxRFO_2{stroke-dasharray:2426 2428;stroke-dashoffset:2427;animation:GhPRxRFO_draw 2000ms linear 285ms forwards;}.GhPRxRFO_3{stroke-dasharray:2025 2027;stroke-dashoffset:2026;animation:GhPRxRFO_draw 2000ms linear 428ms forwards;}.GhPRxRFO_4{stroke-dasharray:535 537;stroke-dashoffset:536;animation:GhPRxRFO_draw 2000ms linear 571ms forwards;}.GhPRxRFO_5{stroke-dasharray:242 244;stroke-dashoffset:243;animation:GhPRxRFO_draw 2000ms linear 714ms forwards;}.GhPRxRFO_6{stroke-dasharray:1107 1109;stroke-dashoffset:1108;animation:GhPRxRFO_draw 2000ms linear 857ms forwards;}.GhPRxRFO_7{stroke-dasharray:1551 1553;stroke-dashoffset:1552;animation:GhPRxRFO_draw 2000ms linear 1000ms forwards;}@keyframes GhPRxRFO_draw{100%{stroke-dashoffset:0;}}@keyframes GhPRxRFO_fade{0%{stroke-opacity:1;}94.44444444444444%{stroke-opacity:1;}100%{stroke-opacity:0;}}</style></svg>
